<svg version="1.1" id="Layer_1" xmlns="http://www.w3.org/2000/svg" xmlns:xlink="http://www.w3.org/1999/xlink" x="0px" y="0px"
	 width="100%" viewBox="0 0 1002 521" enable-background="new 0 0 1002 521" xml:space="preserve">
<path fill="#FEFEFE" opacity="1.000000" stroke="none" 
	d="
M743.000000,522.000000 
	C496.833344,522.000000 251.166672,521.990051 5.500039,522.093384 
	C1.750822,522.094971 0.903819,521.249329 0.906194,517.499939 
	C1.014341,346.833344 1.014341,176.166656 0.906194,5.500060 
	C0.903818,1.750683 1.750898,0.905757 5.500028,0.906896 
	C336.500000,1.007415 667.500000,1.007415 998.500000,0.906896 
	C1002.249084,0.905757 1003.096191,1.750683 1003.093811,5.500060 
	C1002.985657,176.166656 1002.985657,346.833344 1003.093811,517.499939 
	C1003.096191,521.249329 1002.249817,522.100647 998.499878,522.095215 
	C913.500061,521.971436 828.500000,522.000000 743.000000,522.000000 
z"/>
<path fill="#8D3F81" opacity="1.000000" stroke="none" 
	d="
M239.946625,329.951599 
	C221.300964,345.344055 200.090530,351.573639 176.506744,349.973907 
	C172.215149,349.682770 171.295731,350.380402 173.040253,354.618652 
	C178.751572,368.494202 184.945602,382.106720 192.750488,394.951599 
	C195.712494,399.826355 195.202469,404.249695 191.583145,406.381256 
	C187.937241,408.528473 183.494690,407.018585 180.779022,402.347656 
	C159.591812,365.905518 145.392899,327.228363 143.282471,284.692535 
	C142.925858,277.505066 143.425262,270.350983 144.219315,263.247620 
	C144.610779,259.745453 143.655823,258.729858 140.337387,258.184723 
	C129.088120,256.336670 119.033768,251.995926 110.984779,243.520340 
	C102.526840,234.614166 98.915222,223.804047 97.951027,211.888977 
	C95.786949,185.146255 102.517464,160.012512 112.396057,135.591766 
	C115.856400,127.037476 117.952759,118.434837 116.895302,109.351685 
	C115.764320,99.636971 120.238853,97.251930 129.299103,99.479843 
	C139.663925,102.028557 149.520905,106.166595 158.901855,111.231247 
	C162.559402,113.205902 165.267914,113.211586 168.917191,111.077164 
	C176.657837,106.549759 185.220062,104.499077 194.264145,104.845673 
	C201.665878,105.129326 204.616470,110.478661 200.705963,116.763741 
	C196.830612,122.992332 196.364517,129.682419 199.835678,135.774094 
	C207.068314,148.466934 209.460693,162.340927 210.601059,176.450211 
	C212.094162,194.923721 211.678513,213.311722 206.468933,231.411423 
	C201.588638,248.367050 190.512314,256.817383 173.217407,257.847015 
	C170.064438,258.034698 166.907883,258.930908 163.791412,258.767365 
	C159.903549,258.563354 158.598785,260.210785 158.297745,263.780396 
	C156.948959,279.773041 157.619507,295.635040 160.888092,312.776367 
	C163.065094,308.732269 164.516449,305.735016 166.231262,302.896973 
	C184.211517,273.139313 211.567108,262.945435 244.892014,265.410706 
	C252.196136,265.951080 259.417450,267.201538 266.470398,269.230011 
	C272.193024,270.875824 273.982880,274.128632 272.050812,279.789795 
	C265.493286,299.004028 255.603806,316.126923 239.946625,329.951599 
z"/>
<path fill="#A539DB" opacity="1.000000" stroke="none" 
	d="
M461.906952,468.166321 
	C480.502441,474.757019 491.758667,470.722198 502.363434,454.048157 
	C510.808075,440.770599 515.079041,425.884003 518.776672,410.855713 
	C522.616333,395.250336 524.060913,379.356506 522.177673,363.300323 
	C521.767029,359.799164 522.003296,358.360657 526.509155,358.069611 
	C535.753845,357.472443 545.267334,356.332153 551.604736,348.075928 
	C553.196106,346.002716 554.317017,343.568420 556.253845,340.282837 
	C557.134033,346.424866 558.005127,351.578003 558.594299,356.763184 
	C562.600281,392.015747 558.176086,425.849945 541.054626,457.390106 
	C529.001221,479.594147 511.493805,495.140778 485.866821,499.168610 
	C468.789246,501.852753 451.970551,499.859253 436.248871,492.029572 
	C426.883942,487.365692 423.908875,479.924011 427.485168,471.070923 
	C430.177826,464.405273 435.845337,461.185822 442.998016,462.235962 
	C449.486725,463.188629 455.403015,465.953674 461.906952,468.166321 
z"/>
<path fill="#A539DB" opacity="1.000000" stroke="none" 
	d="
M484.819092,47.866623 
	C469.538055,66.786499 467.909363,88.428207 470.383911,111.055145 
	C472.331055,128.859283 476.663879,146.063034 482.792572,162.853012 
	C483.238251,164.073883 483.483643,165.367859 483.974304,167.194275 
	C469.753510,164.227600 460.835052,171.613678 453.258484,182.266479 
	C451.146423,180.187424 450.478638,177.624817 449.621979,175.226852 
	C440.680450,150.198196 433.422485,124.692673 433.613800,97.903809 
	C433.850677,64.737946 443.694702,35.235992 472.059326,15.324035 
	C488.423767,3.836214 506.592560,1.997835 524.876953,11.964866 
	C530.859253,15.225885 535.355957,20.067606 538.929016,25.845846 
	C540.271423,28.016724 540.221497,29.764212 538.431091,31.627447 
	C537.051453,33.063099 535.642944,34.575569 534.691467,36.299061 
	C531.348022,42.355408 526.223206,42.737114 520.250000,41.435562 
	C515.836426,40.473858 511.393982,39.658680 507.644989,36.991825 
	C504.783661,34.956425 502.113373,36.456776 499.566437,37.307915 
	C493.742676,39.254139 489.170319,43.149666 484.819092,47.866623 
z"/>
<path fill="#9446BB" opacity="1.000000" stroke="none" 
	d="
M480.046021,219.356995 
	C480.045990,252.637207 480.050812,285.464325 480.036987,318.291443 
	C480.035858,320.956207 480.172913,323.430176 481.575684,325.946899 
	C483.497467,329.394775 481.622131,333.694183 478.031036,334.943268 
	C473.936890,336.367432 471.301605,334.686737 469.849457,330.760834 
	C468.611420,327.413757 468.480682,323.908539 468.457031,320.423096 
	C468.281708,294.595337 467.942139,268.765625 468.125000,242.939835 
	C468.222778,229.130997 469.254150,215.328766 469.864624,201.523575 
	C470.009583,198.246353 471.316925,195.388000 473.171143,192.775482 
	C476.433929,188.178391 480.039551,188.028595 483.716888,192.463150 
	C486.925690,196.332703 489.174011,200.807434 491.225891,205.376144 
	C502.038422,229.451584 508.589325,254.935135 515.944519,280.153168 
	C518.598572,289.253174 521.243713,298.355835 523.935913,307.444550 
	C524.378601,308.939117 524.470337,310.634033 526.125122,312.039978 
	C527.655396,307.322235 527.383850,302.617493 527.679749,298.095215 
	C529.844482,265.011871 530.993896,231.889175 530.489258,198.726974 
	C530.411621,193.625381 532.183777,190.693680 535.775024,190.579971 
	C539.389099,190.465515 541.956848,193.542587 542.036499,198.680847 
	C542.424316,223.680145 541.713501,248.661270 540.447937,273.625671 
	C539.630188,289.755615 539.038940,305.905823 537.004211,321.949982 
	C536.711426,324.259033 536.126526,326.544830 536.002991,328.858826 
	C535.697876,334.575317 531.791321,335.707123 527.194458,336.103821 
	C522.664429,336.494720 521.030579,333.609467 520.225647,329.880951 
	C511.973724,291.656219 496.682770,255.800354 483.041107,219.390427 
	C482.428497,217.755417 482.122559,215.908844 480.045990,214.217575 
	C480.045990,216.126877 480.045990,217.515381 480.046021,219.356995 
z"/>
<path fill="#9447BB" opacity="1.000000" stroke="none" 
	d="
M645.722168,255.747299 
	C648.495422,259.666443 652.476501,258.050171 655.853088,258.478699 
	C666.083130,259.777039 666.354675,259.588257 665.934814,249.567169 
	C665.175171,231.437241 663.971619,213.326004 663.196228,195.196579 
	C662.923889,188.828217 666.535156,186.244186 672.340698,187.712234 
	C675.028076,188.391800 676.041016,189.612213 676.103577,192.505997 
	C676.625549,216.649628 677.267456,240.791138 677.992981,264.929718 
	C678.598511,285.073029 679.369690,305.211365 680.053223,325.352386 
	C680.104004,326.848633 680.158325,328.361023 680.005615,329.844788 
	C679.597900,333.805481 676.436584,334.816162 673.333191,335.529541 
	C670.321411,336.221924 669.193176,333.692871 668.369995,331.594421 
	C665.904541,325.309296 665.350525,318.602814 665.247375,311.971558 
	C665.042664,298.817627 665.188354,285.653687 665.461548,272.499573 
	C665.545288,268.468262 664.591248,266.429779 660.176025,267.110596 
	C656.646423,267.654846 653.243652,266.440826 649.809204,265.900269 
	C646.938721,265.448456 646.076172,266.337128 646.044312,269.255768 
	C645.860413,286.087769 646.498169,302.892242 647.384399,319.692444 
	C647.542114,322.683014 647.827209,325.656525 647.234863,328.651825 
	C646.562134,332.053314 645.099548,334.830231 641.307251,334.967255 
	C637.802795,335.093842 636.630737,332.247345 635.860840,329.433502 
	C633.328857,320.180389 632.999084,310.691376 633.329773,301.198853 
	C634.199890,276.222809 634.282532,251.242538 633.960449,226.260132 
	C633.842468,217.104858 633.355408,207.954483 633.051514,198.801376 
	C632.990662,196.968750 633.044495,195.167068 633.775818,193.406067 
	C634.844482,190.832626 636.687134,189.272949 639.440491,189.247421 
	C641.999634,189.223694 643.867004,190.679993 644.842407,193.027679 
	C646.612244,197.287567 646.548218,201.807404 646.477844,206.307983 
	C646.222717,222.629745 645.953003,238.951279 645.722168,255.747299 
z"/>
<path fill="#9447BB" opacity="1.000000" stroke="none" 
	d="
M414.268799,300.786896 
	C409.323700,298.834534 407.727997,300.911407 407.149750,305.222900 
	C406.221954,312.140839 405.050903,319.033234 403.730011,325.887726 
	C403.233795,328.462677 402.249725,331.007111 401.099396,333.376770 
	C399.567017,336.533508 396.872284,337.501221 393.578674,336.159210 
	C390.349091,334.843231 388.512115,333.014771 389.545776,328.895905 
	C396.588501,300.833130 402.759949,272.578247 407.489594,244.023285 
	C409.853729,229.749908 411.983765,215.446014 413.010620,200.999573 
	C413.140106,199.177872 413.371948,197.355789 413.684326,195.556091 
	C415.127502,187.242310 416.238464,186.500687 424.505585,187.379959 
	C429.028931,187.861038 431.476227,189.982071 431.578491,194.675629 
	C432.293976,227.510361 439.436981,259.723541 441.001038,292.507996 
	C441.543793,303.885101 444.550323,315.144501 446.426697,326.458466 
	C446.589844,327.442444 446.805908,328.429016 446.843872,329.420258 
	C446.981018,333.002106 447.194427,336.807251 442.369598,337.488678 
	C437.245392,338.212341 433.472382,335.186310 433.307251,330.009888 
	C433.062347,322.334808 431.892456,314.776611 431.075165,307.170502 
	C430.757812,304.217224 429.656250,302.711121 426.558655,302.449310 
	C422.588593,302.113800 418.650574,301.398651 414.268799,300.786896 
z"/>
<path fill="#9447BB" opacity="1.000000" stroke="none" 
	d="
M846.908020,326.215820 
	C846.211914,319.818817 845.534180,313.869110 844.859985,307.918976 
	C844.495850,304.704651 843.444275,302.517822 839.525024,302.281189 
	C834.899597,302.001923 830.273254,301.188446 825.734985,300.202576 
	C822.525818,299.505402 821.585327,300.958435 821.131836,303.626740 
	C819.823425,311.325317 818.526550,319.027161 817.074890,326.699280 
	C816.678711,328.793365 815.922913,330.865448 815.030823,332.809296 
	C813.512817,336.116760 810.991028,337.536987 807.313232,336.253876 
	C803.499512,334.923370 802.221069,332.396149 803.227417,328.466522 
	C807.680237,311.078979 811.664551,293.583893 815.191284,275.983276 
	C820.354492,250.215240 824.818115,224.343826 827.006165,198.125595 
	C827.061523,197.462082 827.083069,196.793747 827.177002,196.135773 
	C828.393799,187.612762 833.379089,184.832153 841.478394,188.129745 
	C843.939453,189.131790 844.964355,190.958115 845.026367,193.574844 
	C845.689697,221.578262 851.757751,249.055542 853.313721,276.943481 
	C854.272278,294.125549 857.910950,310.839142 860.125549,327.791992 
	C861.013977,334.592804 859.729553,337.241364 855.646729,337.513184 
	C849.814575,337.901489 847.147583,335.027618 846.967468,328.160706 
	C846.954407,327.661469 846.941101,327.162201 846.908020,326.215820 
z"/>
<path fill="#9446BB" opacity="1.000000" stroke="none" 
	d="
M373.668701,287.509033 
	C374.833221,300.910034 374.219879,313.553101 367.658447,325.295654 
	C360.008362,338.986481 345.960754,344.110046 332.044556,338.134277 
	C328.719849,336.706573 325.917664,334.888336 327.443451,330.683258 
	C328.933380,326.577057 332.114655,326.487946 335.662231,327.828583 
	C336.594727,328.181000 337.555420,328.458344 338.500885,328.776886 
	C346.427490,331.447479 351.186340,329.804047 354.919678,322.323090 
	C360.490601,311.160065 362.417664,299.343414 360.334656,286.918915 
	C358.215973,274.281464 353.214600,262.742828 347.490173,251.407532 
	C340.595825,237.755524 333.111328,224.268326 330.735382,208.870590 
	C328.492218,194.333389 329.375793,180.457443 341.687714,169.996826 
	C348.931732,163.842041 359.213959,163.952759 364.740784,170.105286 
	C365.852081,171.342377 367.894226,172.600128 366.528351,174.746246 
	C365.276947,176.712463 363.815308,178.652695 360.944244,178.003159 
	C359.819000,177.748596 358.545197,177.770599 357.586731,177.228607 
	C354.351990,175.399399 351.867401,176.757935 349.530975,178.863022 
	C343.896301,183.939804 342.046844,190.554718 342.354889,197.815750 
	C342.892944,210.498093 346.860626,222.214233 352.424835,233.558655 
	C358.712799,246.378677 366.459320,258.556274 370.353729,272.463074 
	C371.695465,277.254456 372.518890,282.191010 373.668701,287.509033 
z"/>
<path fill="#9447BB" opacity="1.000000" stroke="none" 
	d="
M608.921143,199.441467 
	C606.049316,199.689102 603.520630,200.098907 601.075500,199.807404 
	C594.192932,198.986847 590.486938,202.671616 588.195984,208.452927 
	C584.844604,216.910263 583.800781,225.899017 583.080811,234.820175 
	C581.431763,255.252945 581.604492,275.756531 581.640564,296.243622 
	C581.652100,302.785095 582.674866,309.162842 585.121277,315.275146 
	C588.876526,324.657623 596.516418,328.455383 606.276794,325.603943 
	C608.672607,324.903992 610.592224,325.554230 612.225464,327.072357 
	C613.840149,328.573334 613.877319,330.516571 613.227783,332.614258 
	C612.280212,335.674500 610.168823,337.352539 607.197815,337.921265 
	C594.986267,340.258728 578.004639,336.660522 572.849670,319.628387 
	C570.168945,310.770844 568.528625,301.768311 568.335510,292.648285 
	C567.866760,270.513702 567.217712,248.353470 569.909058,226.274994 
	C570.974731,217.532364 573.855652,209.436218 578.153931,201.863983 
	C582.918152,193.470963 597.021606,186.865585 606.548462,188.295776 
	C609.247253,188.700943 611.905457,189.456589 612.567505,192.659958 
	C613.184082,195.643463 611.886658,197.812332 608.921143,199.441467 
z"/>
<path fill="#9447BB" opacity="1.000000" stroke="none" 
	d="
M723.976379,296.866730 
	C724.282166,304.311676 724.755920,311.292267 724.765381,318.273499 
	C724.769714,321.440430 725.816162,322.458038 728.804321,322.019684 
	C729.770996,321.877899 730.806946,322.023621 731.786499,322.186615 
	C735.751831,322.846588 738.220886,325.177032 738.224182,329.219208 
	C738.227234,332.949921 734.673767,334.358734 732.129089,334.625793 
	C723.387756,335.543213 714.552429,336.221893 705.804871,334.402557 
	C704.359741,334.102020 702.942871,333.524048 701.605225,332.882050 
	C699.627136,331.932648 698.606384,330.346497 698.868042,328.043671 
	C699.154907,325.518677 700.654968,324.189148 703.027344,323.766815 
	C704.330688,323.534821 705.715942,323.203583 706.981201,323.414642 
	C712.147827,324.276489 713.465027,321.685425 713.117371,317.145569 
	C712.660400,311.179016 712.473206,305.191528 712.000854,299.226440 
	C709.647217,269.502563 708.720215,239.740555 709.379578,209.928253 
	C709.434265,207.457031 709.104614,204.977295 708.958069,202.576920 
	C708.490540,202.493988 708.326172,202.423752 708.173645,202.443817 
	C704.589783,202.914948 700.346558,204.296844 699.076843,199.291885 
	C697.813965,194.313858 701.934265,192.639206 705.576599,191.364380 
	C711.907227,189.148621 718.567139,188.482895 725.219788,188.252884 
	C729.488342,188.105301 732.616943,191.179626 732.306458,194.937546 
	C731.945923,199.301224 729.255493,200.847214 725.051697,200.315872 
	C720.208496,199.703735 718.958374,202.579163 719.123901,206.688431 
	C719.854126,224.814178 720.445740,242.947083 721.374634,261.062683 
	C721.979370,272.855774 723.077698,284.623535 723.976379,296.866730 
z"/>
<path fill="#9447BB" opacity="1.000000" stroke="none" 
	d="
M764.628418,241.501404 
	C763.994629,229.231384 763.359375,217.428146 762.894897,205.618195 
	C762.748657,201.900833 762.217896,199.289001 757.418945,199.574417 
	C754.512817,199.747284 751.501221,198.835892 748.597534,198.154083 
	C746.074036,197.561554 743.564575,196.411652 744.061707,193.216400 
	C744.506104,190.359634 746.975464,189.362625 749.543091,188.956619 
	C750.844055,188.750900 752.205566,188.815979 753.531250,188.896896 
	C764.326294,189.555832 775.118774,190.255173 785.913269,190.923599 
	C788.487976,191.083038 790.471497,192.030167 790.996460,194.782684 
	C791.537415,197.619202 790.244446,199.608429 787.807068,200.935242 
	C784.963074,202.483414 781.982544,202.145325 779.052429,201.342346 
	C775.125183,200.266129 773.354431,201.051743 773.458008,205.715729 
	C773.920654,226.535797 775.644470,247.265121 777.422729,267.994995 
	C779.073486,287.237854 780.401733,306.498474 780.802551,325.814545 
	C780.841187,327.680878 780.753784,329.558228 779.767212,331.132141 
	C778.280640,333.503815 776.047791,335.414307 773.195618,334.661011 
	C770.558350,333.964539 768.897095,331.989197 768.977417,328.717957 
	C769.349731,313.556915 768.045471,298.459320 767.048950,283.347961 
	C766.139832,269.562012 765.468872,255.760330 764.628418,241.501404 
z"/>
<path fill="#FDFDFD" opacity="1.000000" stroke="none" 
	d="
M195.800323,171.394562 
	C197.516235,188.969055 198.063141,206.057587 194.075256,222.985229 
	C193.694885,224.599808 193.239197,226.200577 192.737030,227.781906 
	C188.100647,242.381226 181.791733,245.770737 166.613510,239.236694 
	C151.686981,232.811005 144.524078,219.770370 142.138596,204.449600 
	C138.312057,179.873734 145.259338,157.668045 159.304993,137.564804 
	C164.543365,130.067230 171.698334,124.636742 180.169846,121.023628 
	C182.844986,119.882683 184.461884,119.609413 183.958984,123.572685 
	C182.982269,131.270035 184.979095,138.401978 188.796082,145.096558 
	C193.358490,153.098572 194.397766,162.068756 195.800323,171.394562 
z"/>
<path fill="#FDFCFD" opacity="1.000000" stroke="none" 
	d="
M173.353088,323.020020 
	C176.906357,309.046906 184.765015,297.736786 196.758743,289.754303 
	C214.315536,278.069305 233.822632,277.335480 253.894638,280.809021 
	C255.914764,281.158600 256.417450,281.805389 255.608643,283.715546 
	C244.877655,309.059113 228.210754,328.008514 200.322342,334.633057 
	C194.217636,336.083191 187.911270,336.599609 180.572098,335.863251 
	C182.593445,334.379089 183.929016,333.313721 185.346329,332.371277 
	C196.422577,325.006195 207.553116,317.721985 218.581940,310.286774 
	C222.777039,307.458618 223.753601,303.406799 221.435181,300.060913 
	C219.114380,296.711609 215.055054,296.167084 210.795135,298.665131 
	C209.792511,299.253082 208.844208,299.933777 207.871933,300.573364 
	C196.485107,308.064056 185.098495,315.555084 173.353088,323.020020 
z"/>
<path fill="#FDFBFD" opacity="1.000000" stroke="none" 
	d="
M135.232956,227.678085 
	C138.634445,234.052826 142.913406,239.315231 147.892120,244.288101 
	C129.190109,245.238541 114.288849,231.992111 111.924774,212.976059 
	C109.520363,193.635498 114.206711,175.350952 119.474205,157.062286 
	C122.647736,146.043793 128.624802,135.989487 130.441818,124.528816 
	C130.545990,123.871849 130.711014,123.223694 130.796890,122.564804 
	C131.829300,114.642982 131.833664,114.626266 139.226074,117.720413 
	C142.290527,119.003059 145.271317,120.498238 148.376495,121.667465 
	C151.518723,122.850632 152.323364,123.788559 149.814041,126.993332 
	C134.394730,146.686020 127.184990,169.307037 127.046631,194.196930 
	C126.981827,205.854935 129.796432,216.924942 135.232956,227.678085 
z"/>
<path fill="#FDFCFD" opacity="1.000000" stroke="none" 
	d="
M173.001404,323.001526 
	C172.859894,323.232452 172.716843,323.461761 172.573761,323.691071 
	C172.562469,323.437286 172.551178,323.183472 172.767120,322.961853 
	C172.994339,322.994049 172.999863,322.999908 173.001404,323.001526 
z"/>
<path fill="#FCFBFD" opacity="1.000000" stroke="none" 
	d="
M413.864990,261.815094 
	C416.427734,246.239105 418.755585,231.062744 422.307831,216.131439 
	C425.076080,241.503876 428.078522,266.765167 428.406891,292.237793 
	C428.437683,294.625702 427.958923,295.250519 425.809235,294.911377 
	C424.988251,294.781830 424.164124,294.671631 423.344879,294.532379 
	C409.126099,292.115112 409.088135,292.108765 411.156738,277.975922 
	C411.926483,272.717072 412.920715,267.491058 413.864990,261.815094 
z"/>
<path fill="#FCFAFD" opacity="1.000000" stroke="none" 
	d="
M831.053650,240.078796 
	C832.531555,231.802490 833.957642,223.954529 835.468811,215.638260 
	C837.759399,220.677368 837.115540,225.759232 837.644165,230.578537 
	C839.840271,250.597656 841.658264,270.654633 842.032593,290.821045 
	C842.101624,294.540924 841.179382,295.578918 837.627441,294.694641 
	C832.979553,293.537537 826.730164,294.971832 823.943726,291.351898 
	C821.317139,287.939697 824.246277,282.461182 824.944275,277.931702 
	C826.868835,265.442261 828.970276,252.980087 831.053650,240.078796 
z"/>
</svg>